<svg width="257" height="33" viewBox="0 0 257 33" fill="none" xmlns="http://www.w3.org/2000/svg">
<g clip-path="url(#clip0_2_25)">
<path d="M67.9909 30.5781C76.073 30.5781 82.6249 24.3101 82.6249 16.5781C82.6249 8.84614 76.073 2.57812 67.9909 2.57812C59.9088 2.57812 53.3569 8.84614 53.3569 16.5781C53.3569 24.3101 59.9088 30.5781 67.9909 30.5781Z" fill="white"/>
<path d="M68.5419 0.578125C59.5779 0.578125 52.3116 7.74146 52.3116 16.5781C52.3116 25.4147 59.5779 32.5781 68.5419 32.5781C77.506 32.5781 84.7722 25.4147 84.7722 16.5781C84.7722 7.74146 77.506 0.578125 68.5419 0.578125ZM73.5697 16.7261C73.5697 14.0708 71.386 11.9178 68.692 11.9178C65.9985 11.9178 63.8148 14.0704 63.8148 16.7261C63.8148 19.3814 65.9985 21.534 68.692 21.534V24.2817C64.4593 24.2817 61.0275 20.8991 61.0275 16.7261C61.0275 12.5532 64.4589 9.17052 68.692 9.17052C72.9252 9.17052 76.3566 12.5532 76.3566 16.7261H73.5697ZM78.2726 16.7261C78.2726 11.5102 73.9835 7.28172 68.692 7.28172C63.4011 7.28172 59.1119 11.5102 59.1119 16.7261C59.1119 21.9419 63.4011 26.1701 68.692 26.1701V29.3185C61.6374 29.3185 55.9181 23.6805 55.9181 16.7261C55.9181 9.7714 61.6374 4.13372 68.692 4.13372C75.747 4.13372 81.4661 9.7714 81.4661 16.7261H78.2726Z" fill="#F43E37"/>
</g>
<g clip-path="url(#clip1_2_25)">
<path fill-rule="evenodd" clip-rule="evenodd" d="M186.848 28.3138C186.523 29.1039 185.773 30.2164 184.709 31C184.094 31.4526 183.361 31.8853 182.354 32.1708C181.28 32.4752 179.957 32.5781 178.311 32.5781H163.259C161.613 32.5781 160.29 32.4752 159.216 32.1708C158.209 31.8853 157.476 31.4526 156.861 31C155.797 30.2163 155.047 29.1039 154.722 28.3138C154.067 26.7219 154.06 24.9157 154.06 23.7781V9.37809C154.06 8.24055 154.067 6.43434 154.722 4.84241C155.047 4.0523 155.797 2.93982 156.861 2.15619C157.476 1.70359 158.209 1.27095 159.216 0.985453C160.29 0.681006 161.613 0.578125 163.259 0.578125H178.311C179.957 0.578125 181.28 0.681006 182.354 0.985453C183.361 1.27095 184.094 1.70372 184.709 2.15619C185.773 2.93994 186.523 4.0523 186.848 4.84241C187.503 6.43434 187.51 8.24055 187.51 9.37809V23.7781C187.51 24.9156 187.503 26.7218 186.848 28.3138Z" fill="url(#paint0_linear_2_25)"/>
<path d="M173.211 18.9714C172.709 18.4648 171.827 18.14 170.787 18.14C169.746 18.14 168.864 18.4648 168.362 18.9714C168.1 19.2358 167.962 19.5068 167.918 19.8929C167.834 20.6406 167.881 21.2843 167.973 22.3135C168.06 23.2942 168.226 24.6021 168.442 25.9341C168.596 26.882 168.72 27.3936 168.834 27.76C169.019 28.3537 169.708 28.873 170.787 28.873C171.865 28.873 172.554 28.3536 172.739 27.76C172.853 27.3936 172.978 26.882 173.131 25.9341C173.348 24.6021 173.513 23.2942 173.6 22.3135C173.692 21.2842 173.739 20.6404 173.655 19.8929C173.611 19.507 173.473 19.2358 173.211 18.9714ZM168.052 14.4603C168.052 15.9066 169.277 17.0791 170.789 17.0791C172.301 17.0791 173.527 15.9066 173.527 14.4603C173.527 13.0139 172.301 11.8414 170.789 11.8414C169.277 11.8414 168.052 13.0139 168.052 14.4603ZM170.755 4.12517C164.353 4.1426 159.107 9.11154 159.028 15.2361C158.963 20.1974 162.274 24.4413 166.896 25.9969C167.009 26.0346 167.123 25.9455 167.105 25.833C167.044 25.4477 166.987 25.0606 166.935 24.68C166.916 24.5455 166.826 24.4295 166.696 24.3752C163.043 22.8481 160.491 19.3425 160.532 15.2818C160.586 9.9529 165.135 5.60849 170.705 5.56538C176.4 5.52138 181.047 9.94032 181.047 15.3781C181.047 19.3981 178.507 22.8607 174.881 24.3756C174.752 24.4299 174.663 24.5462 174.644 24.6807C174.592 25.0611 174.534 25.4481 174.474 25.833C174.456 25.9455 174.57 26.0346 174.682 25.997C179.261 24.4563 182.552 20.2784 182.552 15.3782C182.552 9.16228 177.257 4.10737 170.755 4.12517ZM170.543 9.28767C174.172 9.15325 177.169 11.9388 177.169 15.3815C177.169 17.1324 176.394 18.7132 175.155 19.8264C175.05 19.9208 174.993 20.0548 175.001 20.1925C175.026 20.6113 175.017 21.0183 174.988 21.4779C174.98 21.6003 175.123 21.6785 175.229 21.6095C177.308 20.2508 178.674 17.9662 178.674 15.3815C178.674 11.1259 174.969 7.68252 170.483 7.84886C166.314 8.0035 162.969 11.292 162.915 15.2834C162.88 17.9084 164.256 20.234 166.361 21.6097C166.466 21.6788 166.609 21.6005 166.602 21.4781C166.572 21.0183 166.563 20.6113 166.588 20.1925C166.596 20.0549 166.54 19.9209 166.435 19.8267C165.157 18.6788 164.372 17.0339 164.422 15.2179C164.51 12.0221 167.203 9.41141 170.543 9.28767Z" fill="white"/>
</g>
<g clip-path="url(#clip2_2_25)">
<path d="M135.934 16.5781C135.934 25.467 128.479 32.5781 119.453 32.5781C110.428 32.5781 102.842 25.467 102.842 16.5781C102.842 7.68925 110.297 0.578125 119.323 0.578125C128.348 0.578125 135.934 7.68925 135.934 16.5781Z" fill="url(#paint1_linear_2_25)"/>
<path d="M107.723 17.6471C107.729 17.5942 107.769 17.557 107.818 17.557C107.866 17.557 107.905 17.5942 107.912 17.6468L108.118 18.9238L107.912 20.1791C107.905 20.2317 107.866 20.2683 107.818 20.2683C107.769 20.2683 107.729 20.2314 107.723 20.1786L107.55 18.9238L107.723 17.6471Z" fill="white"/>
<path d="M108.693 16.7669C108.743 16.7669 108.784 16.8048 108.792 16.8596L109.056 18.9239L108.792 20.943C108.784 20.9977 108.743 21.0357 108.693 21.0357C108.643 21.0357 108.601 20.9966 108.595 20.9425L108.362 18.9239L108.595 16.8596C108.602 16.806 108.643 16.7669 108.693 16.7669Z" fill="white"/>
<path d="M112.281 15.1279C112.285 15.0315 112.364 14.9555 112.46 14.9555C112.555 14.9555 112.633 15.0315 112.639 15.1279L112.849 18.9257L112.639 21.3803V21.3796C112.633 21.4758 112.555 21.5517 112.46 21.5517C112.364 21.5517 112.286 21.476 112.281 21.3801L112.095 18.9257L112.281 15.1279Z" fill="white"/>
<path d="M110.422 16.4083C110.428 16.3324 110.488 16.2756 110.561 16.2756C110.634 16.2756 110.694 16.3324 110.7 16.4078L110.937 18.9247L110.7 21.3593C110.694 21.4347 110.634 21.4916 110.561 21.4916C110.488 21.4916 110.428 21.4347 110.422 21.3593L110.213 18.9247L110.422 16.4083Z" fill="white"/>
<path d="M114.608 21.34C114.603 21.4587 114.507 21.5514 114.388 21.5514C114.269 21.5514 114.173 21.4584 114.169 21.3408L114.008 18.9266L114.169 13.8709C114.173 13.7522 114.269 13.6593 114.389 13.6593C114.507 13.6593 114.603 13.752 114.608 13.8706L114.79 18.9269L114.608 21.34Z" fill="white"/>
<path d="M118.638 21.2725C118.635 21.4326 118.501 21.5629 118.338 21.5629C118.175 21.5629 118.04 21.4326 118.037 21.2739C118.037 21.2739 117.924 18.9303 117.924 18.9266L118.037 13.0891C118.04 12.9287 118.174 12.7984 118.338 12.7984C118.501 12.7984 118.635 12.929 118.638 13.0889L118.765 18.9285L118.638 21.2725Z" fill="white"/>
<path d="M116.608 21.3022C116.604 21.4431 116.49 21.5536 116.348 21.5536C116.205 21.5536 116.091 21.4431 116.088 21.3037L115.95 18.9277L116.088 13.8345C116.091 13.6936 116.205 13.5833 116.348 13.5833C116.49 13.5833 116.604 13.6936 116.608 13.8345L116.762 18.9274L116.608 21.3039V21.3022Z" fill="white"/>
<path d="M111.666 21.3793C111.659 21.4656 111.591 21.5311 111.507 21.5311C111.421 21.5311 111.353 21.4656 111.348 21.379L111.151 18.9244L111.348 16.5902C111.353 16.5034 111.421 16.4378 111.507 16.4378C111.591 16.4378 111.66 16.5029 111.666 16.5891L111.889 18.9244L111.666 21.3793Z" fill="white"/>
<path d="M109.742 21.2844C109.735 21.3497 109.685 21.3969 109.623 21.3969C109.561 21.3969 109.511 21.3494 109.505 21.284L109.284 18.9242L109.505 16.475C109.511 16.4098 109.561 16.3623 109.623 16.3623C109.685 16.3623 109.735 16.4096 109.742 16.475L109.993 18.9242L109.742 21.2844Z" fill="white"/>
<path d="M117.058 14.0207C117.061 13.8684 117.185 13.7495 117.339 13.7495C117.492 13.7495 117.615 13.8684 117.619 14.0202L117.759 18.928L117.619 21.2892V21.2872C117.615 21.4394 117.492 21.5581 117.339 21.5581C117.184 21.5581 117.061 21.4392 117.058 21.2889L116.933 18.9278L117.058 14.0207Z" fill="white"/>
<path d="M113.62 21.3645C113.615 21.472 113.527 21.5564 113.421 21.5564C113.313 21.5564 113.225 21.472 113.221 21.3655L113.048 18.9265L113.221 14.2599C113.226 14.1524 113.313 14.0681 113.421 14.0681C113.527 14.0681 113.615 14.1521 113.62 14.2599L113.815 18.9265L113.62 21.3645Z" fill="white"/>
<path d="M115.604 21.3259V21.3256C115.6 21.4545 115.495 21.5558 115.365 21.5558C115.234 21.5558 115.129 21.4541 115.125 21.3257L114.976 18.9266L115.125 13.7002C115.128 13.5702 115.234 13.4686 115.365 13.4686C115.495 13.4686 115.6 13.5704 115.604 13.7002L115.772 18.9269L115.604 21.3246V21.3256C115.604 21.3253 115.604 21.3251 115.604 21.3249V21.3259Z" fill="white"/>
<path d="M127.188 16.1339C127.535 15.9928 127.915 15.9145 128.314 15.9145C129.922 15.9145 131.226 17.1805 131.226 18.7421C131.226 20.3036 129.922 21.5695 128.314 21.5695C128.262 21.5695 120.249 21.5656 120.242 21.5648C120.068 21.5477 119.929 21.4036 119.927 21.2306V12.2575C119.929 12.0926 119.988 12.0076 120.208 11.925C120.773 11.7127 121.413 11.5871 122.07 11.5871C124.755 11.5871 126.956 13.5859 127.188 16.1339Z" fill="white"/>
<path d="M119.011 12.5601C119.013 12.3889 119.157 12.2495 119.332 12.2495C119.506 12.2495 119.65 12.3889 119.652 12.5597L119.795 18.9291L119.652 21.2409V21.2381C119.65 21.4095 119.506 21.5486 119.332 21.5486C119.157 21.5486 119.013 21.4095 119.011 21.2406L118.879 18.9291L119.011 12.5601Z" fill="white"/>
</g>
<g clip-path="url(#clip3_2_25)">
<path d="M221.938 30.5781C230.057 30.5781 236.638 24.2821 236.638 16.5156C236.638 8.74913 230.057 2.45312 221.938 2.45312C213.82 2.45312 207.239 8.74913 207.239 16.5156C207.239 24.2821 213.82 30.5781 221.938 30.5781Z" fill="white"/>
<path fill-rule="evenodd" clip-rule="evenodd" d="M205.971 16.5156C205.971 8.07926 213.12 1.24023 221.938 1.24023C230.757 1.24023 237.905 8.07926 237.905 16.5156C237.905 24.952 230.757 31.791 221.938 31.791C213.12 31.791 205.971 24.952 205.971 16.5156ZM221.938 3.66601C214.52 3.66601 208.507 9.41899 208.507 16.5156C208.507 23.6123 214.52 29.3652 221.938 29.3652C229.356 29.3652 235.37 23.6123 235.37 16.5156C235.37 9.41899 229.356 3.66601 221.938 3.66601Z" fill="#363F46"/>
<path d="M213.958 10.5771C213.958 10.5771 211.926 12.7709 211.926 16.6039C211.926 20.4369 213.958 22.5423 213.958 22.5423" fill="white"/>
<path fill-rule="evenodd" clip-rule="evenodd" d="M214.912 11.3763C214.912 11.3763 214.912 11.3763 214.912 11.3763C214.911 11.3772 214.91 11.379 214.907 11.3816C214.9 11.3896 214.886 11.4057 214.867 11.4297C214.827 11.4776 214.764 11.5569 214.686 11.6663C214.529 11.8855 214.31 12.2236 214.088 12.6719C213.645 13.5672 213.193 14.8972 213.193 16.6039C213.193 18.3097 213.645 19.6146 214.083 20.4825C214.303 20.9176 214.52 21.2429 214.675 21.4522C214.752 21.5568 214.814 21.6319 214.853 21.6768C214.872 21.6993 214.885 21.7141 214.892 21.7212C214.893 21.7232 214.895 21.7246 214.895 21.7254C215.364 22.2177 215.331 22.9807 214.818 23.4333C214.304 23.8878 213.502 23.8574 213.027 23.3653L213.958 22.5423C213.027 23.3653 213.027 23.3649 213.026 23.3645L213.023 23.3617L213.019 23.3574L213.009 23.3462C213.001 23.3377 212.991 23.3271 212.979 23.3143C212.956 23.2887 212.926 23.2546 212.889 23.212C212.816 23.1268 212.719 23.0075 212.606 22.8547C212.38 22.5495 212.089 22.1089 211.8 21.5385C211.223 20.3955 210.658 18.7312 210.658 16.6039C210.658 14.4777 211.222 12.7943 211.796 11.6345C212.082 11.0552 212.372 10.6053 212.595 10.2934C212.707 10.1372 212.803 10.0152 212.875 9.92817C212.911 9.88465 212.941 9.84985 212.964 9.8239C212.975 9.81092 212.984 9.80014 212.992 9.79159L213.002 9.78043L213.006 9.7761L213.008 9.77425L213.009 9.7734C213.009 9.773 213.009 9.77261 213.958 10.5772L213.009 9.77261C213.474 9.27134 214.275 9.22519 214.799 9.66953C215.321 10.1123 215.371 10.8749 214.912 11.3763Z" fill="#FC7E0F"/>
<path d="M230.153 10.5771C230.153 10.5771 232.185 12.7709 232.185 16.6039C232.185 20.4369 230.153 22.5423 230.153 22.5423" fill="white"/>
<path fill-rule="evenodd" clip-rule="evenodd" d="M229.312 9.66952C229.836 9.22518 230.637 9.27134 231.101 9.77262L230.153 10.5772C231.101 9.77262 231.102 9.77301 231.102 9.77341L231.103 9.77426L231.105 9.77611L231.109 9.78044L231.119 9.7916C231.126 9.80015 231.136 9.81093 231.147 9.82391C231.17 9.84986 231.2 9.88466 231.236 9.92818C231.307 10.0152 231.403 10.1373 231.515 10.2934C231.739 10.6053 232.028 11.0552 232.315 11.6345C232.889 12.7943 233.453 14.4777 233.453 16.6039C233.453 18.7312 232.888 20.3955 232.31 21.5385C232.022 22.1089 231.731 22.5495 231.505 22.8547C231.391 23.0075 231.294 23.1268 231.222 23.212C231.185 23.2546 231.155 23.2887 231.132 23.3143C231.12 23.3271 231.11 23.3377 231.102 23.3462L231.092 23.3574L231.087 23.3617L231.086 23.3636L231.085 23.3645C231.084 23.3649 231.084 23.3653 230.153 22.5423L231.084 23.3653C230.609 23.8574 229.807 23.8878 229.292 23.4333C228.78 22.9807 228.746 22.2177 229.216 21.7254C229.216 21.7251 229.216 21.7247 229.217 21.7242C229.217 21.7234 229.218 21.7225 229.219 21.7213C229.226 21.7141 229.239 21.6993 229.258 21.6768C229.297 21.6319 229.358 21.5568 229.436 21.4522C229.591 21.2429 229.808 20.9176 230.028 20.4826C230.466 19.6146 230.917 18.3097 230.917 16.6039C230.917 14.8972 230.466 13.5672 230.023 12.6719C229.801 12.2236 229.582 11.8855 229.425 11.6663C229.346 11.5568 229.284 11.4776 229.244 11.4296C229.224 11.4057 229.211 11.3896 229.204 11.3816C229.201 11.3789 229.2 11.3772 229.199 11.3763M229.312 9.66952C228.79 10.1123 228.74 10.8749 229.199 11.3763L229.312 9.66952Z" fill="#FC7E0F"/>
<path d="M226.911 13.1406C226.911 13.1406 228.28 14.7719 228.246 16.596C228.204 18.7897 226.927 19.9951 226.927 19.9951" fill="white"/>
<path fill-rule="evenodd" clip-rule="evenodd" d="M226.117 12.1949C226.663 11.7755 227.461 11.8589 227.899 12.3812L226.911 13.1406C227.899 12.3812 227.899 12.3809 227.899 12.3812L227.901 12.3836L227.904 12.3866L227.91 12.3944L227.929 12.4173C227.944 12.4357 227.963 12.4606 227.987 12.4913C228.035 12.5529 228.1 12.6387 228.175 12.7461C228.326 12.9598 228.524 13.2637 228.721 13.6343C229.105 14.3568 229.536 15.4259 229.514 16.6174C229.488 17.9415 229.089 18.9806 228.687 19.6939C228.486 20.0496 228.285 20.3258 228.126 20.5195C228.047 20.6165 227.978 20.6934 227.925 20.7498C227.899 20.7781 227.876 20.8013 227.858 20.8193L227.834 20.8427L227.825 20.8515L227.821 20.8552L227.82 20.8568L227.819 20.8576C227.818 20.858 227.818 20.8584 226.927 19.9951L227.818 20.8584C227.32 21.3289 226.517 21.3239 226.025 20.8471C225.537 20.3736 225.538 19.6128 226.027 19.1415C226.029 19.1395 226.033 19.135 226.039 19.1282C226.056 19.1102 226.088 19.0758 226.129 19.0255C226.211 18.9246 226.331 18.7623 226.455 18.5425C226.702 18.1048 226.962 17.4436 226.979 16.5742C226.99 15.9418 226.753 15.2833 226.461 14.7342C226.32 14.469 226.178 14.2511 226.073 14.1019C226.02 14.0278 225.978 13.972 225.951 13.9372C225.938 13.9198 225.928 13.9078 225.923 13.9014L225.919 13.8965C225.484 13.3743 225.572 12.6134 226.117 12.1949ZM226.035 19.1331C226.035 19.1332 226.036 19.1331 226.035 19.1331V19.1331Z" fill="#FC7E0F"/>
<path d="M217.134 13.1406C217.134 13.1406 215.764 14.7719 215.798 16.596C215.84 18.7897 217.117 19.9951 217.117 19.9951" fill="white"/>
<path fill-rule="evenodd" clip-rule="evenodd" d="M218.122 13.8995L218.124 13.8982L218.125 13.897C218.125 13.8969 218.125 13.8964 218.125 13.897C218.124 13.8979 218.123 13.8987 218.122 13.8995ZM217.066 16.5742C217.054 15.9418 217.291 15.2833 217.583 14.7342C217.724 14.469 217.866 14.2511 217.971 14.1019C218.024 14.0278 218.066 13.972 218.093 13.9372C218.106 13.9198 218.116 13.9078 218.121 13.9014L218.125 13.897C218.56 13.3748 218.472 12.6134 217.927 12.1949C217.381 11.7755 216.583 11.8589 216.145 12.3812L217.116 13.127C216.145 12.3812 216.145 12.3809 216.145 12.3812L216.143 12.3836L216.14 12.3866L216.134 12.3944L216.115 12.4173C216.1 12.4357 216.081 12.4606 216.057 12.4913C216.009 12.5529 215.944 12.6387 215.869 12.7461C215.718 12.9598 215.52 13.2637 215.323 13.6343C214.939 14.3568 214.508 15.4259 214.53 16.6174C214.556 17.9415 214.955 18.9806 215.357 19.6939C215.558 20.0496 215.759 20.3258 215.918 20.5195C215.997 20.6165 216.066 20.6934 216.119 20.7498C216.145 20.7781 216.168 20.8013 216.186 20.8193L216.21 20.8427L216.219 20.8515L216.223 20.8552L216.225 20.8568L216.225 20.8576C216.226 20.858 216.226 20.8584 217.117 19.9951L216.226 20.8584C216.725 21.3289 217.527 21.3239 218.019 20.8471C218.508 20.3736 218.506 19.6128 218.017 19.1415C218.015 19.1395 218.011 19.135 218.005 19.1282C217.988 19.1102 217.956 19.0758 217.915 19.0255C217.833 18.9246 217.713 18.7623 217.589 18.5425C217.342 18.1048 217.082 17.4436 217.066 16.5742Z" fill="#FC7E0F"/>
<path d="M221.937 18.6987C223.197 18.6987 224.218 17.7214 224.218 16.5158C224.218 15.3103 223.197 14.333 221.937 14.333C220.676 14.333 219.655 15.3103 219.655 16.5158C219.655 17.7214 220.676 18.6987 221.937 18.6987Z" fill="#363F46"/>
<path d="M222.322 18.5548L220.704 18.1386L218.008 27.7705L219.627 28.1866L222.322 18.5548Z" fill="#363F46"/>
<path d="M221.695 18.5421L223.307 18.1328L225.988 27.7715L224.376 28.1808L221.695 18.5421Z" fill="#363F46"/>
<path d="M220.198 23.7399L220.797 23.1533L224.947 27.021L224.348 27.6077L220.198 23.7399Z" fill="#363F46"/>
<path d="M223.713 23.7607L223.171 23.2354L219.057 27.1441L219.599 27.6694L223.713 23.7607Z" fill="#363F46"/>
</g>
<g clip-path="url(#clip4_2_25)">
<path d="M17.1277 0.630859C7.91939 0.630859 0.454285 7.77238 0.454285 16.5817C0.454285 25.3914 7.91939 32.5324 17.1277 32.5324C26.3369 32.5324 33.8012 25.3914 33.8012 16.5817C33.8012 7.77295 26.3369 0.631621 17.1274 0.631621L17.1277 0.630859ZM24.7739 23.6365C24.4753 24.1051 23.8342 24.2537 23.3444 23.9661C19.4297 21.6785 14.5015 21.1604 8.69769 22.4289C8.13841 22.5508 7.58092 22.2156 7.4535 21.6804C7.32547 21.1451 7.6745 20.6118 8.23517 20.4899C14.5865 19.1011 20.0345 19.6994 24.4295 22.2689C24.9193 22.5565 25.0746 23.168 24.7739 23.6365ZM26.8147 19.2927C26.4384 19.8785 25.638 20.0632 25.0268 19.7032C20.545 17.0672 13.7132 16.304 8.41217 17.8434C7.72468 18.0421 6.99855 17.6714 6.78989 17.0148C6.58283 16.3571 6.97047 15.6638 7.65679 15.4638C13.7121 13.7061 21.2399 14.5575 26.3867 17.5832C26.9979 17.9432 27.191 18.7089 26.8147 19.2929V19.2927ZM26.9899 14.7701C21.6162 11.7165 12.7502 11.4358 7.61955 12.9255C6.79567 13.1645 5.9244 12.7196 5.67473 11.9314C5.42506 11.1428 5.88976 10.3099 6.71423 10.0703C12.6039 8.35981 22.3946 8.69028 28.5816 12.204C29.3242 12.6247 29.5672 13.5404 29.1271 14.2484C28.6891 14.9573 27.7294 15.191 26.9907 14.7701H26.9899Z" fill="#1ED760"/>
</g>
<defs>
<linearGradient id="paint0_linear_2_25" x1="170.785" y1="0.578125" x2="170.785" y2="32.5781" gradientUnits="userSpaceOnUse">
<stop stop-color="#F452FF"/>
<stop offset="1" stop-color="#832BC1"/>
</linearGradient>
<linearGradient id="paint1_linear_2_25" x1="119.388" y1="0.578125" x2="119.388" y2="32.5781" gradientUnits="userSpaceOnUse">
<stop stop-color="#FF7602"/>
<stop offset="1" stop-color="#FF3502"/>
</linearGradient>
<clipPath id="clip0_2_25">
<rect width="33.4491" height="32" fill="white" transform="translate(51.6226 0.578125)"/>
</clipPath>
<clipPath id="clip1_2_25">
<rect width="33.4491" height="32" fill="white" transform="translate(154.06 0.578125)"/>
</clipPath>
<clipPath id="clip2_2_25">
<rect width="33.4491" height="32" fill="white" transform="translate(102.841 0.578125)"/>
</clipPath>
<clipPath id="clip3_2_25">
<rect width="33.4491" height="32" fill="white" transform="translate(205.279 0.578125)"/>
</clipPath>
<clipPath id="clip4_2_25">
<rect width="33.4491" height="32" fill="white" transform="translate(0.403748 0.578125)"/>
</clipPath>
</defs>
</svg>
